<svg width="25" height="24" viewBox="0 0 25 24" fill="none" xmlns="http://www.w3.org/2000/svg">
<path fill-rule="evenodd" clip-rule="evenodd" d="M19.2103 22.1538C17.6808 22.1538 16.4411 20.9142 16.4411 19.3846C16.4411 17.8551 17.6808 16.6154 19.2103 16.6154C20.7399 16.6154 21.9796 17.8551 21.9796 19.3846C21.9796 20.9142 20.7399 22.1538 19.2103 22.1538ZM6.28726 14.7692C4.75772 14.7692 3.51803 13.5295 3.51803 12C3.51803 10.4714 4.75772 9.23077 6.28726 9.23077C7.8168 9.23077 9.05649 10.4714 9.05649 12C9.05649 13.5295 7.8168 14.7692 6.28726 14.7692ZM19.2103 1.84615C20.7399 1.84615 21.9796 3.08585 21.9796 4.61538C21.9796 6.14492 20.7399 7.38462 19.2103 7.38462C17.6808 7.38462 16.4411 6.14492 16.4411 4.61538C16.4411 3.08585 17.6808 1.84615 19.2103 1.84615ZM19.2103 14.7692C17.5765 14.7692 16.1503 15.6231 15.3297 16.9034L10.3867 14.0788C10.706 13.4511 10.9026 12.7514 10.9026 12C10.9026 11.5357 10.8131 11.0963 10.6857 10.6735L15.8282 7.73539C16.671 8.64924 17.8691 9.23077 19.2103 9.23077C21.7599 9.23077 23.8257 7.16492 23.8257 4.61538C23.8257 2.06585 21.7599 0 19.2103 0C16.6608 0 14.595 2.06585 14.595 4.61538C14.595 5.07969 14.6845 5.51907 14.8119 5.94276L9.66941 8.88C8.82665 7.96707 7.62849 7.38462 6.28726 7.38462C3.73772 7.38462 1.67188 9.45046 1.67188 12C1.67188 14.5495 3.73772 16.6154 6.28726 16.6154C7.33957 16.6154 8.29863 16.2498 9.07494 15.6572L9.05649 15.6923L14.6457 18.8862C14.6273 19.0523 14.595 19.2129 14.595 19.3846C14.595 21.9342 16.6608 24 19.2103 24C21.7599 24 23.8257 21.9342 23.8257 19.3846C23.8257 16.8351 21.7599 14.7692 19.2103 14.7692Z" fill="#2B2928"/>
</svg>
